<svg id="圖層_1" data-name="圖層 1" xmlns="http://www.w3.org/2000/svg" viewBox="0 0 699.5 123.48"><defs><style>.cls-1{fill:#bf944e;}.cls-2{fill:#004098;}</style></defs><title>logo</title><path class="cls-1" d="M68.24,11.18c.19-.83-.62-1-.85-1.1-1.57-.14-3.16-.22-4.76-.22s-3.19.08-4.76.22c-.23.05-1,.27-.85,1.08l5.61,23.91,5.58-23.71A.92.92,0,0,1,68.24,11.18Z" transform="translate(-0.5)"/><path class="cls-1" d="M49.53,1a.74.74,0,0,1,0-.22A.93.93,0,0,0,48.38,0,61.55,61.55,0,0,0,34.72,5a1.07,1.07,0,0,0-.45,1.5l19.6,30.07Z" transform="translate(-0.5)"/><path class="cls-1" d="M26.55,26.36l19.64,14.7L35.25,19.31a1.12,1.12,0,0,1-.09-.17.92.92,0,0,0-1.36-.28c-1.29.89-2.56,1.86-3.79,2.89s-2.39,2.11-3.5,3.23A.93.93,0,0,0,26.55,26.36Z" transform="translate(-0.5)"/><path class="cls-1" d="M14.31,23.42a.82.82,0,0,1-.17-.14.93.93,0,0,0-1.37.1A61.56,61.56,0,0,0,5.49,36a1.08,1.08,0,0,0,.63,1.44L40.43,47.83Z" transform="translate(-0.5)"/><path class="cls-1" d="M13,57.62l24.49-1.38L15.1,46.61a.56.56,0,0,1-.17-.06c-.78-.33-1.14.44-1.22.65a47.06,47.06,0,0,0-1.05,4.66c-.28,1.58-.48,3.16-.61,4.73C12.06,56.82,12.14,57.66,13,57.62Z" transform="translate(-0.5)"/><path class="cls-1" d="M1.71,63.24s-.09,0-.23,0c-.77-.06-.94.61-1,1A61.8,61.8,0,0,0,3,78.54a1.09,1.09,0,0,0,1.41.7l33-14.11Z" transform="translate(-0.5)"/><path class="cls-1" d="M90.54,5A61.55,61.55,0,0,0,76.88,0a.93.93,0,0,0-1.11.81.74.74,0,0,1,0,.22L71.39,36.54,91,6.47A1.07,1.07,0,0,0,90.54,5Z" transform="translate(-0.5)"/><path class="cls-1" d="M98.74,25q-1.65-1.68-3.5-3.23a47.4,47.4,0,0,0-3.79-2.89.91.91,0,0,0-1.35.28,1.12,1.12,0,0,1-.09.17l-11,21.75,19.65-14.7A.92.92,0,0,0,98.74,25Z" transform="translate(-0.5)"/><path class="cls-1" d="M119.76,36a61.51,61.51,0,0,0-7.27-12.59.93.93,0,0,0-1.37-.1l-.17.14L84.83,47.83l34.31-10.42A1.07,1.07,0,0,0,119.76,36Z" transform="translate(-0.5)"/><path class="cls-1" d="M113.2,56.59c-.13-1.57-.32-3.15-.6-4.73s-.63-3.14-1-4.66c-.08-.21-.44-1-1.22-.65a.52.52,0,0,1-.18.06L87.81,56.24l24.48,1.38C113.12,57.66,113.2,56.82,113.2,56.59Z" transform="translate(-0.5)"/><path class="cls-1" d="M122.25,78.54a61.29,61.29,0,0,0,2.51-14.34c0-.34-.21-1-1-1-.13,0-.2,0-.21,0L87.88,65.13l33,14.11A1.07,1.07,0,0,0,122.25,78.54Z" transform="translate(-0.5)"/><path class="cls-2" d="M92.44,111.7c2.48,1.82,5.21,1.52,10.49-2.91s6-7.08,4.69-9.85l-3.31-4.4a1.23,1.23,0,0,0-.2-.32A3.81,3.81,0,0,1,104,90h0a51.21,51.21,0,0,0,4.69-8.14,1.26,1.26,0,0,0-.69-1.57L85.87,73.61a1.77,1.77,0,0,0-1.68.82,25.54,25.54,0,0,1-43.14,0,1.88,1.88,0,0,0-2-.77h0L17.5,80.19a1.31,1.31,0,0,0-.89,1.67A50.79,50.79,0,0,0,21.3,90h0a3.81,3.81,0,0,1-.14,4.24,1.23,1.23,0,0,0-.2.32L17.64,99c-1.35,2.76-.58,5.4,4.69,9.84s8,4.73,10.49,2.91l3.76-4,.27-.25a3.8,3.8,0,0,1,4.15-.88h0a50,50,0,0,0,8.78,3.2h0a3.81,3.81,0,0,1,2.61,3.34c0,.16,0,.28.05.37l.3,5.51c.74,3,3,4.52,9.91,4.52s9.16-1.54,9.9-4.52l.3-5.5a1.59,1.59,0,0,0,0-.38,3.82,3.82,0,0,1,2.62-3.34h0a49.89,49.89,0,0,0,8.77-3.2h0a3.78,3.78,0,0,1,4.14.88,2.55,2.55,0,0,0,.28.25Z" transform="translate(-0.5)"/><path class="cls-2" d="M219.3,104.63a66,66,0,0,1-22.2,3.82q-23.35,0-38.07-12.65T144.31,62.44q0-19.95,14.47-33t36.79-13a67.42,67.42,0,0,1,23.73,4.45l-6.6,16A49.21,49.21,0,0,0,200.14,35q-12.81,0-20.43,7.5T172.1,62.57q0,11.82,7,19.19,7.6,8.13,21.57,8.14a49.64,49.64,0,0,0,13.7-2Z" transform="translate(-0.5)"/><path class="cls-2" d="M390.21,66.89q0,14.37-2.67,21.1-8,20.45-36.41,20.46-23.1,0-32.86-14.11a29.84,29.84,0,0,1-4.95-13.72,138,138,0,0,1-.51-14.75V18h26.52V61.43q0,16.4,2,21.22,3,7.25,11,7.25,10.53,0,13.45-10.55,1.39-5,1.4-18.56V18h23Z" transform="translate(-0.5)"/><path class="cls-2" d="M477.25,34.87h-26v72.06H424.72V34.87h-25.5V18h78Z" transform="translate(-0.5)"/><polygon class="cls-2" points="280.57 17.96 265.24 51.9 251.94 17.96 222 17.96 248.87 72.36 248.87 106.93 275.39 106.93 275.39 72.36 303.64 17.96 280.57 17.96"/><path class="cls-2" d="M497.82,76.25l-.17,2.32a12.47,12.47,0,0,1-2.81.34A6.87,6.87,0,0,1,489.6,77a6.48,6.48,0,0,1-1.8-4.62,7,7,0,0,1,1.91-4.92A6.75,6.75,0,0,1,495,65.37a9.22,9.22,0,0,1,2.32.29L496.91,68a7.16,7.16,0,0,0-2.26-.39,3.56,3.56,0,0,0-3,1.3,5,5,0,0,0-1,3.13,4.9,4.9,0,0,0,1.18,3.28,4.1,4.1,0,0,0,3.3,1.39A9.6,9.6,0,0,0,497.82,76.25Z" transform="translate(-0.5)"/><path class="cls-2" d="M510.34,78.64h-2.83c.06-2.22.1-4.14.1-5.77h-5.06c0,1.46,0,3.38.1,5.77h-2.83c.08-2.22.13-4.5.13-6.85s-.05-4.45-.13-6.24h2.83c-.08,1.89-.12,3.63-.12,5.23h5.1c0-1.41,0-3.16-.12-5.23h2.83q-.13,2.57-.14,6.24Q510.2,75.65,510.34,78.64Z" transform="translate(-0.5)"/><path class="cls-2" d="M524.62,78.64h-3.21a21.78,21.78,0,0,0-.91-3.76h-4.64a19.15,19.15,0,0,0-.94,3.76h-3a68.27,68.27,0,0,1,2.34-6.43,50.51,50.51,0,0,0,2.34-6.66h3.79a54.75,54.75,0,0,0,2.13,6.56A57.8,57.8,0,0,1,524.62,78.64ZM520,73a57.19,57.19,0,0,1-1.71-5.61h-.16A58.27,58.27,0,0,1,516.33,73Z" transform="translate(-0.5)"/><path class="cls-2" d="M538.27,71.85A7.23,7.23,0,0,1,536.38,77a6.12,6.12,0,0,1-4.66,2,5.88,5.88,0,0,1-4.44-1.87,6.56,6.56,0,0,1-1.78-4.73,7.25,7.25,0,0,1,1.88-5.12,6.14,6.14,0,0,1,4.67-2,5.9,5.9,0,0,1,4.43,1.86A6.57,6.57,0,0,1,538.27,71.85Zm-2.77.29a5.17,5.17,0,0,0-1.08-3.4,3.28,3.28,0,0,0-2.64-1.31,3.05,3.05,0,0,0-2.49,1.32,5.26,5.26,0,0,0-1,3.32,5.2,5.2,0,0,0,1.07,3.4A3.33,3.33,0,0,0,532,76.79a3.07,3.07,0,0,0,2.48-1.32A5.25,5.25,0,0,0,535.5,72.14Z" transform="translate(-0.5)"/><path class="cls-2" d="M550.26,65.55a7.18,7.18,0,0,1-1.14,2.22c-1.17,1.85-1.88,3-2.14,3.44a7.29,7.29,0,0,0-1.14,3c0,1.48,0,2.94.12,4.41h-2.85c.07-1.47.11-3,.11-4.44a8,8,0,0,0-1.05-3.1c-.33-.64-1-1.79-2-3.45a8.08,8.08,0,0,1-1.05-2.1h3.15a16.29,16.29,0,0,0,1.26,3,11.68,11.68,0,0,1,1.26,3.47H545a11.12,11.12,0,0,1,1.23-3.29,11.73,11.73,0,0,0,1.22-3.23Z" transform="translate(-0.5)"/><path class="cls-2" d="M562.79,78.64h-3.21a21.78,21.78,0,0,0-.91-3.76H554a19.15,19.15,0,0,0-.94,3.76h-3a68.27,68.27,0,0,1,2.34-6.43,48.81,48.81,0,0,0,2.34-6.66h3.79a54.75,54.75,0,0,0,2.13,6.56A57.8,57.8,0,0,1,562.79,78.64ZM558.15,73a57.19,57.19,0,0,1-1.71-5.61h-.16A58.27,58.27,0,0,1,554.5,73Z" transform="translate(-0.5)"/><path class="cls-2" d="M575.1,78.64h-2.47q0-.42-2.76-4.35-2.89-4.16-3.29-5.68h-.16a37.06,37.06,0,0,1,.25,4q0,2.47.14,6h-2.47q.15-3.12.15-6.85t-.15-6.24h3q0,.54,2.48,4.25a25.55,25.55,0,0,1,3,5.36H573a36,36,0,0,1-.25-4c0-1.81,0-3.68-.13-5.59h2.5Q575,68,575,71.79T575.1,78.64Z" transform="translate(-0.5)"/><path class="cls-2" d="M588.32,78.29a16.58,16.58,0,0,1-4,.62A6.85,6.85,0,0,1,579.1,77a6.44,6.44,0,0,1-1.78-4.59,7.07,7.07,0,0,1,1.94-5,7,7,0,0,1,5.38-2.1,12.1,12.1,0,0,1,2.85.3L587.16,68a11.15,11.15,0,0,0-2.83-.42,3.84,3.84,0,0,0-3.16,1.3,5,5,0,0,0-1,3.18,5.12,5.12,0,0,0,1.17,3.35,3.93,3.93,0,0,0,3.22,1.43,8.7,8.7,0,0,0,1.33-.12,15,15,0,0,1-.15-2.19,14.89,14.89,0,0,0-.22-2.44h2.84c-.05,1-.08,2.07-.08,3.11C588.24,76,588.27,77,588.32,78.29Z" transform="translate(-0.5)"/><path class="cls-2" d="M606.05,65.55c-.06,2.25-.09,4.51-.09,6.76Q606,79,600.51,79a5.27,5.27,0,0,1-4.06-1.48c-.91-1-1.37-2.75-1.37-5.31q0-3.37-.09-6.64h2.84q-.14,3.4-.13,6.55a7.16,7.16,0,0,0,.7,3.79,2.85,2.85,0,0,0,4.38,0,7.37,7.37,0,0,0,.68-3.81q0-3.07-.13-6.54Z" transform="translate(-0.5)"/><path class="cls-2" d="M619.48,78.64H617q0-.42-2.76-4.35-2.89-4.16-3.29-5.68h-.16a37.06,37.06,0,0,1,.25,4q0,2.47.14,6h-2.47q.15-3.12.15-6.85t-.15-6.24h3q0,.54,2.48,4.25a25.55,25.55,0,0,1,3,5.36h.15a38.32,38.32,0,0,1-.24-4c0-1.81,0-3.68-.15-5.59h2.51q-.13,2.49-.14,6.24T619.48,78.64Z" transform="translate(-0.5)"/><path class="cls-2" d="M625.21,78.64h-2.84q.14-3.12.13-6.85t-.13-6.24h2.84q-.13,2.53-.13,6.24T625.21,78.64Z" transform="translate(-0.5)"/><path class="cls-2" d="M638.33,65.55c0,.55-.77,2.74-2.29,6.55s-2.3,6-2.3,6.54H631a42.59,42.59,0,0,0-2.12-6.57,44.41,44.41,0,0,1-2.11-6.52h3.18a33.92,33.92,0,0,0,1.35,5.21,38.71,38.71,0,0,1,1.34,5.07h.17a35.13,35.13,0,0,1,1.35-4.89,26.59,26.59,0,0,0,1.35-5.39Z" transform="translate(-0.5)"/><path class="cls-2" d="M648.5,76.42l-.08,2.22h-8.54q.14-3,.13-6.85t-.13-6.24H648l-.11,2.2c-2-.1-3.83-.16-5.46-.16.07.94.1,2,.1,3.3,1.4,0,2.89,0,4.48-.11v2.1c-1.56-.07-3-.1-4.48-.1,0,1.36,0,2.63.08,3.81C644.47,76.59,646.42,76.54,648.5,76.42Z" transform="translate(-0.5)"/><path class="cls-2" d="M661.28,78.64h-3a19.32,19.32,0,0,0-1.78-4.4,2.36,2.36,0,0,0-2-.83h-1.11q0,2.58.09,5.22h-2.79q.13-3,.14-6.85t-.14-6.24h1.74l1.26,0c.64,0,1.23,0,1.77,0q4.6,0,4.6,3.15a3.52,3.52,0,0,1-2.63,3.48v.16a3.09,3.09,0,0,1,1.78,1.58A33.69,33.69,0,0,1,661.28,78.64Zm-3.75-9.25c0-1.33-.86-2-2.57-2a9.14,9.14,0,0,0-1.67.14c.07,1,.11,2.4.11,4.06.37,0,.68,0,.93,0C656.46,71.61,657.53,70.87,657.53,69.39Z" transform="translate(-0.5)"/><path class="cls-2" d="M671.48,75.07q0,3.93-5.64,3.93a13,13,0,0,1-3.56-.47l.49-2.24a9.24,9.24,0,0,0,3.07.57,6.1,6.1,0,0,0,2.31-.32,1.07,1.07,0,0,0,.7-1,1.59,1.59,0,0,0-.66-1.29,11.43,11.43,0,0,0-2.32-1.2,7.27,7.27,0,0,1-2.36-1.49,3.46,3.46,0,0,1-1-2.5,3.21,3.21,0,0,1,1.28-2.7,6,6,0,0,1,3.67-1,13.89,13.89,0,0,1,3.3.34l-.37,2.23a8.42,8.42,0,0,0-2.93-.5c-1.58,0-2.36.42-2.36,1.27a1.3,1.3,0,0,0,.55,1.09,10.62,10.62,0,0,0,2.1,1,7.82,7.82,0,0,1,2.56,1.53A3.69,3.69,0,0,1,671.48,75.07Z" transform="translate(-0.5)"/><path class="cls-2" d="M676.53,78.64h-2.84q.13-3.12.13-6.85t-.13-6.24h2.84q-.13,2.53-.13,6.24T676.53,78.64Z" transform="translate(-0.5)"/><path class="cls-2" d="M688.56,65.55l-.07,2.17c-1.34-.11-2.6-.15-3.78-.15,0,1.26,0,2.67,0,4.22,0,2.41,0,4.7.11,6.85H682c.09-2.13.14-4.42.14-6.85,0-1.52,0-2.93,0-4.22-1,0-2.24.05-3.88.15l.08-2.17Z" transform="translate(-0.5)"/><path class="cls-2" d="M700,65.55a7.18,7.18,0,0,1-1.14,2.22c-1.17,1.85-1.89,3-2.14,3.44a7.29,7.29,0,0,0-1.14,3c0,1.48,0,2.94.12,4.41h-2.85c.07-1.47.11-3,.11-4.44a8,8,0,0,0-1.05-3.1c-.33-.64-1-1.79-2-3.45a8.3,8.3,0,0,1-1.06-2.1H692a16.29,16.29,0,0,0,1.26,3,12,12,0,0,1,1.26,3.47h.15a11.12,11.12,0,0,1,1.23-3.29,11.55,11.55,0,0,0,1.23-3.23Z" transform="translate(-0.5)"/><path class="cls-2" d="M500.57,99.17a7.19,7.19,0,0,1-1.89,5.11,6.09,6.09,0,0,1-4.66,2,5.92,5.92,0,0,1-4.44-1.86,6.56,6.56,0,0,1-1.78-4.73,7.21,7.21,0,0,1,1.89-5.12,6.11,6.11,0,0,1,4.66-2,5.9,5.9,0,0,1,4.43,1.86A6.57,6.57,0,0,1,500.57,99.17Zm-2.77.29a5.2,5.2,0,0,0-1.07-3.4,3.32,3.32,0,0,0-2.65-1.31,3.05,3.05,0,0,0-2.49,1.32,5.24,5.24,0,0,0-1,3.32,5.17,5.17,0,0,0,1.08,3.4,3.26,3.26,0,0,0,2.64,1.31,3.08,3.08,0,0,0,2.49-1.32A5.26,5.26,0,0,0,497.8,99.46Z" transform="translate(-0.5)"/><path class="cls-2" d="M511.09,92.87l-.09,2.2c-2.09-.11-4-.16-5.67-.16.09,1.15.13,2.42.13,3.81,1.29,0,2.76,0,4.39-.1v2.08c-1.65-.06-3.12-.09-4.39-.09q0,2.83.09,5.34h-2.77q.14-3,.13-6.84c0-2.44,0-4.51-.13-6.24Z" transform="translate(-0.5)"/><path class="cls-2" d="M526.45,92.87,526.38,95c-1.34-.1-2.59-.15-3.78-.15,0,1.27,0,2.68,0,4.23q0,3.61.11,6.84h-2.81q.14-3.2.13-6.84c0-1.53,0-2.94,0-4.23-.94,0-2.23.06-3.88.16l.08-2.17Z" transform="translate(-0.5)"/><path class="cls-2" d="M536.73,103.74l-.08,2.21h-8.53c.08-2,.13-4.3.13-6.84s0-4.51-.13-6.24h8.14l-.11,2.2c-2-.11-3.82-.16-5.46-.16.07.93.11,2,.11,3.3,1.39,0,2.89,0,4.48-.11v2.1c-1.57-.07-3.06-.1-4.48-.1,0,1.36,0,2.63.08,3.81C532.71,103.91,534.66,103.86,536.73,103.74Z" transform="translate(-0.5)"/><path class="cls-2" d="M548.3,103.57l-.17,2.31a11.92,11.92,0,0,1-2.81.34,6.86,6.86,0,0,1-5.24-1.9,6.49,6.49,0,0,1-1.8-4.63,7.05,7.05,0,0,1,1.91-4.91,6.75,6.75,0,0,1,5.24-2.09,9.62,9.62,0,0,1,2.31.28l-.34,2.32a7.6,7.6,0,0,0-2.27-.38,3.58,3.58,0,0,0-3,1.29,5,5,0,0,0-1,3.14,4.94,4.94,0,0,0,1.17,3.28,4.12,4.12,0,0,0,3.31,1.38A9.57,9.57,0,0,0,548.3,103.57Z" transform="translate(-0.5)"/><path class="cls-2" d="M560.82,106H558c.07-2.22.1-4.14.1-5.76H553c0,1.46,0,3.38.1,5.76h-2.84q.13-3.32.13-6.84t-.13-6.24h2.84c-.08,1.88-.12,3.63-.12,5.23h5.1c0-1.42-.05-3.16-.13-5.23h2.84q-.14,2.55-.14,6.24Q560.68,103,560.82,106Z" transform="translate(-0.5)"/><path class="cls-2" d="M574.47,106H572q0-.4-2.76-4.35A24,24,0,0,1,566,95.93h-.16a37,37,0,0,1,.25,4c0,1.66,0,3.67.14,6h-2.47q.15-3.11.15-6.84t-.15-6.24h3c0,.36.82,1.77,2.48,4.25a25.09,25.09,0,0,1,3,5.35h.15a38,38,0,0,1-.24-4c0-1.82-.05-3.68-.14-5.59h2.5q-.13,2.49-.14,6.24T574.47,106Z" transform="translate(-0.5)"/><path class="cls-2" d="M589.46,99.17a7.19,7.19,0,0,1-1.89,5.11,6.09,6.09,0,0,1-4.66,2,5.92,5.92,0,0,1-4.44-1.86,6.56,6.56,0,0,1-1.78-4.73,7.21,7.21,0,0,1,1.89-5.12,6.11,6.11,0,0,1,4.66-2,5.9,5.9,0,0,1,4.43,1.86A6.57,6.57,0,0,1,589.46,99.17Zm-2.77.29a5.15,5.15,0,0,0-1.08-3.4A3.28,3.28,0,0,0,583,94.75a3.05,3.05,0,0,0-2.49,1.32,5.24,5.24,0,0,0-1,3.32,5.17,5.17,0,0,0,1.08,3.4,3.27,3.27,0,0,0,2.64,1.31,3.08,3.08,0,0,0,2.49-1.32A5.26,5.26,0,0,0,586.69,99.46Z" transform="translate(-0.5)"/><path class="cls-2" d="M600.09,103.76,600,106h-8.34q.12-2.72.12-6.84c0-2.52,0-4.59-.12-6.24h2.82q-.12,2.28-.12,6.24c0,2,0,3.62-.13,4.8Q597,103.91,600.09,103.76Z" transform="translate(-0.5)"/><path class="cls-2" d="M613.74,99.17a7.19,7.19,0,0,1-1.89,5.11,6.07,6.07,0,0,1-4.66,2,5.88,5.88,0,0,1-4.43-1.86A6.56,6.56,0,0,1,601,99.72a7.21,7.21,0,0,1,1.89-5.12,6.11,6.11,0,0,1,4.66-2A5.88,5.88,0,0,1,612,94.43,6.57,6.57,0,0,1,613.74,99.17Zm-2.77.29a5.15,5.15,0,0,0-1.08-3.4,3.28,3.28,0,0,0-2.64-1.31,3.08,3.08,0,0,0-2.49,1.32,5.24,5.24,0,0,0-1,3.32,5.17,5.17,0,0,0,1.08,3.4,3.28,3.28,0,0,0,2.64,1.31,3.05,3.05,0,0,0,2.49-1.32A5.26,5.26,0,0,0,611,99.46Z" transform="translate(-0.5)"/><path class="cls-2" d="M626.48,105.61a16.49,16.49,0,0,1-4,.61,6.82,6.82,0,0,1-5.23-1.89,6.41,6.41,0,0,1-1.79-4.6,7,7,0,0,1,1.95-4.94,6.94,6.94,0,0,1,5.37-2.1,12.69,12.69,0,0,1,2.85.29l-.33,2.37a11.48,11.48,0,0,0-2.82-.41,3.84,3.84,0,0,0-3.17,1.3,5,5,0,0,0-1,3.18,5.12,5.12,0,0,0,1.17,3.35,4,4,0,0,0,3.23,1.43,8.61,8.61,0,0,0,1.32-.13,16.34,16.34,0,0,1-.15-2.19,16.19,16.19,0,0,0-.21-2.44h2.83c-.05,1-.07,2.07-.07,3.12C626.41,103.31,626.43,104.33,626.48,105.61Z" transform="translate(-0.5)"/><path class="cls-2" d="M638.7,92.87a7.18,7.18,0,0,1-1.14,2.22c-1.17,1.84-1.88,3-2.14,3.44a7.29,7.29,0,0,0-1.14,3c0,1.47,0,2.94.12,4.4h-2.85c.07-1.46.11-2.94.11-4.43a8,8,0,0,0-1-3.1c-.33-.65-1-1.79-2-3.45a8.08,8.08,0,0,1-1-2.1h3.15a16.59,16.59,0,0,0,1.26,3,11.68,11.68,0,0,1,1.26,3.47h.15a11.43,11.43,0,0,1,1.23-3.29,11.55,11.55,0,0,0,1.23-3.23Z" transform="translate(-0.5)"/><path class="cls-2" d="M489.12,23.67V20.33h6V18.38h4.45v1.95h6v3.34h-6V26h5.14v9.18c.09,3.07-1.3,4.55-4.17,4.46h-1v2.37h5.69v3.34h-5.69v5.15H495.1V45.39h-6.26V42.05h6.26V39.68H490V26h5.14V23.67Zm5,5.43v2.23h6.24V29.1Zm0,7.52h4.72c1.11.09,1.62-.51,1.52-1.82v-.41h-6.24Zm10.28,14.06V47.2c1.67-1.67,2.45-4.32,2.37-7.94V19.63H520V45.39c0,3.15-1.53,4.69-4.59,4.59h-4.68l.73-3.06H514c1,0,1.53-.56,1.53-1.67V39.68h-4.31Q511.64,47.19,504.41,50.68ZM511.22,23v5h4.31V23Zm0,8.22v5.29h4.31V31.19Z" transform="translate(-0.5)"/><path class="cls-2" d="M560.43,23.25l1.07-3.34h5.88a25.92,25.92,0,0,0,6-.84v3.48a18.47,18.47,0,0,1-4,.7v4h3.76v3.34h-3.76a27.29,27.29,0,0,0,3.62,7v4.73a29.65,29.65,0,0,1-3.62-4.59V50.54h-4.73V39.26a30.17,30.17,0,0,1-5,6.36l.46-5.19a32.54,32.54,0,0,0,4.25-9.8h-4.17V27.29h4.44v-4Z" transform="translate(-0.5)"/><polygon class="cls-2" points="573.13 42.46 573.13 38.98 583.14 38.98 583.14 18.66 588.28 18.66 588.28 38.98 591.9 38.98 591.9 42.46 588.28 42.46 588.28 50.54 583.14 50.54 583.14 42.46 573.13 42.46"/><path class="cls-2" d="M580.48,20.61a22.59,22.59,0,0,1,2.23,8.07H579a20.81,20.81,0,0,0-3.2-8.07Z" transform="translate(-0.5)"/><path class="cls-2" d="M579.18,29.79a22.43,22.43,0,0,1,2.22,8.07h-3.75a20.9,20.9,0,0,0-3.19-8.07Z" transform="translate(-0.5)"/><path class="cls-2" d="M620.61,43.85a23.41,23.41,0,0,0,6-10.44V30.07h-7V25.62h7.79V22.28h-7.79V18.52h-5.42v3.76h-6.94v3.34h6.94v4.45h-6.67v3.34h13.76a24.2,24.2,0,0,1-4.17,7.38,23.28,23.28,0,0,1-4-6h-5.28a26.09,26.09,0,0,0,5.84,9.05,27,27,0,0,1-7.13,3.48L606,50.68a72.79,72.79,0,0,0,11-4.18,46.09,46.09,0,0,0,10.56,4V47.2A30.15,30.15,0,0,1,620.61,43.85Z" transform="translate(-0.5)"/><path class="cls-2" d="M607.16,30.58,603.8,31.7V26.32h2.64V23H603.8V18.66h-5V23h-3.06v3.35h3.06v5.35h0v1.49l-3.25,1.07V38l3.25-1.07v3.41h0v5.32c0,1-.47,1.53-1.39,1.53h-.75l-.36,3.2h3.06c3,0,4.45-1.48,4.45-4.46V36.62h0V35.47l3.36-1.1Z" transform="translate(-0.5)"/><path class="cls-2" d="M554.87,26.45V19.77H537.36V31.19h12.92C553.52,31.37,555.06,29.79,554.87,26.45Zm-12.93-4h8.48v1.81h-8.48Zm6.68,6.12h-6.68v-1.8h8.48Q550.29,28.54,548.62,28.54Z" transform="translate(-0.5)"/><path class="cls-2" d="M535.83,39.54a12.09,12.09,0,0,0-2-7.38,30.52,30.52,0,0,0,2.09-9v-3.2H525.54V50.68h3.89V46.5h1.25Q536,46.37,535.83,39.54Zm-5.26,3.16h-1.14V23.11h2.36a28.89,28.89,0,0,1-1.52,9.19,12.46,12.46,0,0,1,1.94,6.82C532.21,41.26,531.67,42.45,530.57,42.7Z" transform="translate(-0.5)"/><path class="cls-2" d="M545.13,40.78H541A14.39,14.39,0,0,1,535.75,46l-.34,2.58C540.21,47.1,543.46,44.5,545.13,40.78Z" transform="translate(-0.5)"/><path class="cls-2" d="M543.47,35.5h13.35V32.44H536V35.5h3.47A6.36,6.36,0,0,1,536.52,39l-.42,3a11.19,11.19,0,0,0,4-1.95h11.67v6q.13,1.39-1.53,1.26h-1.12l-.4,2.92h2.77c3.06.18,4.49-1.39,4.31-4.73V37H542.63q.15-.27.42-.84A4.91,4.91,0,0,0,543.47,35.5Z" transform="translate(-0.5)"/><path class="cls-2" d="M547.06,40.78a10.53,10.53,0,0,1-5.57,7.11l-.39,2.93q8-3.06,9.59-10Z" transform="translate(-0.5)"/><path class="cls-2" d="M680.66,21.44a1.51,1.51,0,0,1-.55.28,9.66,9.66,0,0,1-2,.7v1.95c2-.56,3.66-1.07,4.86-1.54a22.33,22.33,0,0,0,4.59,1.54V22.42c-.93-.37-1.53-.61-1.8-.7a1.66,1.66,0,0,1-.7-.28,13,13,0,0,0,2.36-2.5.39.39,0,0,0,.14-.28h-3.2c-.09.09-.22.23-.41.41a3.19,3.19,0,0,1-1.11,1,19.51,19.51,0,0,1-1.53-1.39h-3.48A20.23,20.23,0,0,0,680.66,21.44Z" transform="translate(-0.5)"/><path class="cls-2" d="M680.52,27.57a10.9,10.9,0,0,1-2.36,1v1.95l1.51-.43a21.27,21.27,0,0,0,3.22-1.1,25.94,25.94,0,0,0,4.72,1.53V28.54a14.81,14.81,0,0,1-2.5-1,13.1,13.1,0,0,0,2.36-2.51.36.36,0,0,0,.14-.28h-3.33q-.13.15-.42.42a3,3,0,0,1-1.11,1c-.1-.08-.33-.27-.7-.55l-.83-.84h-3.34A15.1,15.1,0,0,0,680.52,27.57Z" transform="translate(-0.5)"/><path class="cls-2" d="M699.34,44.2V40.89h-10.7q3.75-1.59,6.11-2.88V35.16H671.54V38H687a15.23,15.23,0,0,1-5.42,2.73v.15H667V44.2h14.59v1.44c.1,1.25-.46,1.82-1.67,1.73h-2L677,50.54h4.86c3.52.19,5.18-1.34,5-4.61V44.2Z" transform="translate(-0.5)"/><path class="cls-2" d="M697.07,31.05V19.21h-9v3.21h4.72V24h-4.3V26h4.3v1.39h-4.3v2.08h4.3v1.54h-19.6V29.51h4.31V27.43h-4.31V26h4.45V24h-4.45V22.42h1.67l.3,0h2.67V19.27h-8.94V31.05h-1.53v5.43H671v-3h24.19v3h3.4V31.05Z" transform="translate(-0.5)"/><path class="cls-2" d="M656.63,42.17c-1-1.51-1.87-3.08-2.69-4.65s-1.57-3-2.34-4.54h-2.73l.08-.35c.09-.43.18-1,.26-1.54s.11-.85.15-1.2h12.92V26.13H649.73v-.05c.12-1.28.2-2.59.23-3.89s.07-2.42.11-3.61h-5c0,1.15-.09,2.37-.17,3.62s-.22,2.69-.36,3.93H632.05v3.76h12.16a24,24,0,0,1-1,4.45,28.73,28.73,0,0,1-1.91,4.52A34.18,34.18,0,0,1,637,45.35a49.82,49.82,0,0,1-4.82,4.91H639A36.71,36.71,0,0,0,644,44.15a39.36,39.36,0,0,0,3.64-6.91l.25-.62.28.6c1.09,2.3,2.31,4.59,3.64,6.81a38.5,38.5,0,0,0,4.69,6.23H663a39.13,39.13,0,0,1-3.21-3.63A53.5,53.5,0,0,1,656.63,42.17Z" transform="translate(-0.5)"/></svg>